# xmcd
#
# Track frame offsets:
#	150
#	34200
#	59174
#	83474
#	102674
#	129374
#	153374
#	171599
#	216899
#
# Disc length: 3106 seconds
#
# Revision: 2
# Processed by: cddbd v1.5.1PL2 Copyright (c) Steve Scherf et al.
# Submitted via: EasyCDDAExtractor 8.0.2.1
#
DISCID=7e0c2009
DTITLE=Uriah Heep - Amsterdam 1985 Disc 1
DYEAR=1985
DGENRE=Hard Rock
TTITLE0=Intro - Sell Your Soul
TTITLE1=Stealin'
TTITLE2=The Other Side Of Midnight
TTITLE3=Too Scared To Run
TTITLE4=Rockorama
TTITLE5=Angel
TTITLE6=The Wizard
TTITLE7=July Morning
TTITLE8=Bad Blood
EXTD=
EXTT0=
EXTT1=
EXTT2=
EXTT3=
EXTT4=
EXTT5=
EXTT6=
EXTT7=
EXTT8=
PLAYORDER=
